<svg xmlns="http://www.w3.org/2000/svg" version="1.1" xmlns:xlink="http://www.w3.org/1999/xlink" xmlns:svgjs="http://svgjs.dev/svgjs" width="1500" height="935" viewBox="0 0 1500 935"><g transform="matrix(1,0,0,1,-0.9090909090909918,0.3785425101214628)"><svg viewBox="0 0 396 247" data-background-color="#000000" preserveAspectRatio="xMidYMid meet" height="935" width="1500" xmlns="http://www.w3.org/2000/svg" xmlns:xlink="http://www.w3.org/1999/xlink"><g id="tight-bounds" transform="matrix(1,0,0,1,0.2400000000000091,-0.09999999999999432)"><svg viewBox="0 0 395.52 247.2" height="247.2" width="395.52"><g><svg></svg></g><g><svg viewBox="0 0 395.52 247.2" height="247.2" width="395.52"><mask id="a478b1b5-c2d6-49f6-82c3-dd2fdcc11a71"><rect width="395.52" height="247.2" fill="white"></rect><g transform="matrix(1,0,0,1,0,69.6945587831027)" id="clone"><svg viewBox="0 0 395.52 107.81088243379456" height="107.81088243379456" width="395.52"><g><svg viewBox="0 0 395.52 107.81088243379456" height="107.81088243379456" width="395.52"><g><svg viewBox="0 0 395.52 107.81088243379456" height="107.81088243379456" width="395.52"><g><svg viewBox="0 0 395.52 107.81088243379456" height="107.81088243379456" width="395.52"><g id="SvgjsG4934"><svg viewBox="0 0 395.52 107.81088243379456" height="107.81088243379456" width="395.52" id="SvgjsSvg4933"><g><svg viewBox="0 0 395.52 107.81088243379456" height="107.81088243379456" width="395.52"><g transform="matrix(1,0,0,1,0,0)"><svg width="395.52" viewBox="-0.1200000000000001 -41.09 160.85 44.580000000000005" height="107.81088243379456" data-palette-color="#89939e"><path d="M14.89 0.49L14.89 0.49Q11.23 0.49 8.53-1.2 5.83-2.88 4.36-5.97 2.88-9.06 2.88-13.26L2.88-13.26Q2.88-17.48 4.36-20.56 5.83-23.63 8.53-25.32 11.23-27 14.89-27L14.89-27Q17.8-27 19.7-26.16 21.61-25.32 22.73-24.02 23.85-22.73 24.41-21.39L24.41-21.39 21.66-19.8 21.34-19.8Q20.43-21.46 19.01-22.56 17.58-23.66 15.09-23.66L15.09-23.66Q12.57-23.66 10.86-22.42 9.16-21.19 8.3-18.86 7.45-16.53 7.45-13.26L7.45-13.26Q7.45-10.01 8.3-7.68 9.16-5.35 10.85-4.1 12.55-2.86 15.09-2.86L15.09-2.86Q17.58-2.86 18.99-3.92 20.41-4.98 21.31-6.64L21.31-6.64 21.63-6.64 24.41-5.13Q23.85-3.78 22.73-2.49 21.61-1.2 19.7-0.35 17.8 0.49 14.89 0.49ZM35.1 0L30.69 0 30.69-37.6 35.13-38.09 35.13-28 34.98-21.48Q36.35-24.58 38.64-25.79 40.94-27 43.7-27L43.7-27Q47.97-27 50.24-24.22 52.51-21.44 52.51-16.36L52.51-16.36 52.51 0 48.02 0 48.02-16.14Q48.02-19.92 46.82-21.8 45.63-23.68 42.8-23.68L42.8-23.68Q40.6-23.68 39.12-22.91 37.64-22.14 36.75-20.84 35.86-19.53 35.48-17.91 35.1-16.28 35.1-14.55L35.1-14.55 35.1 0ZM67.55 0.49L67.55 0.49Q63.76 0.49 61.4-1.42 59.03-3.32 59.03-7.18L59.03-7.18Q59.03-8.94 59.65-10.3 60.27-11.67 61.54-12.61 62.81-13.55 64.81-14.04 66.82-14.53 69.55-14.53L69.55-14.53 75.51-14.53 75.51-17.58Q75.51-20.78 74.07-22.2 72.63-23.63 69.72-23.63L69.72-23.63Q67.84-23.63 65.49-23.03 63.13-22.44 61.25-21.14L61.25-21.14 59.96-24.51Q61.3-25.37 62.92-25.92 64.55-26.46 66.32-26.73 68.09-27 69.84-27L69.84-27Q72.82-27 75.09-26.05 77.36-25.1 78.64-22.95 79.93-20.8 79.93-17.21L79.93-17.21 79.93 0 76.22 0 75.9-3.25Q74.85-2 73.6-1.17 72.36-0.34 70.86 0.07 69.36 0.49 67.55 0.49ZM68.23-2.66L68.23-2.66Q70.58-2.66 72.43-3.64 74.29-4.61 75.51-6.18L75.51-6.18 75.51-11.72 70.36-11.72Q67.67-11.72 66.11-11.21 64.55-10.69 63.9-9.68 63.25-8.67 63.25-7.13L63.25-7.13Q63.25-4.64 64.7-3.65 66.16-2.66 68.23-2.66ZM92.11 0L87.69 0 87.69-37.6 92.13-38.09 92.13-28 91.98-21.48Q93.35-24.58 95.65-25.79 97.94-27 100.7-27L100.7-27Q104.97-27 107.24-24.22 109.51-21.44 109.51-16.36L109.51-16.36 109.51 0 105.02 0 105.02-16.14Q105.02-19.92 103.83-21.8 102.63-23.68 99.8-23.68L99.8-23.68Q97.6-23.68 96.12-22.91 94.65-22.14 93.75-20.84 92.86-19.53 92.49-17.91 92.11-16.28 92.11-14.55L92.11-14.55 92.11 0ZM124.55 0.49L124.55 0.49Q120.77 0.49 118.4-1.42 116.03-3.32 116.03-7.18L116.03-7.18Q116.03-8.94 116.65-10.3 117.28-11.67 118.54-12.61 119.81-13.55 121.82-14.04 123.82-14.53 126.55-14.53L126.55-14.53 132.51-14.53 132.51-17.58Q132.51-20.78 131.07-22.2 129.63-23.63 126.72-23.63L126.72-23.63Q124.84-23.63 122.49-23.03 120.13-22.44 118.25-21.14L118.25-21.14 116.96-24.51Q118.3-25.37 119.92-25.92 121.55-26.46 123.32-26.73 125.09-27 126.85-27L126.85-27Q129.82-27 132.09-26.05 134.37-25.1 135.65-22.95 136.93-20.8 136.93-17.21L136.93-17.21 136.93 0 133.22 0 132.9-3.25Q131.85-2 130.61-1.17 129.36-0.34 127.86 0.07 126.36 0.49 124.55 0.49ZM125.23-2.66L125.23-2.66Q127.58-2.66 129.43-3.64 131.29-4.61 132.51-6.18L132.51-6.18 132.51-11.72 127.36-11.72Q124.67-11.72 123.11-11.21 121.55-10.69 120.9-9.68 120.25-8.67 120.25-7.13L120.25-7.13Q120.25-4.64 121.71-3.65 123.16-2.66 125.23-2.66ZM154.92 0.2L154.92 0.2Q152.11 0.2 150.39-0.23 148.67-0.66 147.78-1.61 146.89-2.56 146.57-4.17 146.25-5.79 146.25-8.15L146.25-8.15 146.25-23.71 142.08-23.71 142.2-26.17 146.37-26.39 147.01-33.54 150.7-33.81 150.7-26.42 157.73-26.42 157.73-23.71 150.7-23.71 150.7-8.13Q150.7-6.05 150.93-4.98 151.16-3.91 152.06-3.5 152.97-3.1 154.92-3.03L154.92-3.03Q155.58-3 156.24-2.98 156.9-2.95 157.56-2.93L157.56-2.93 157.36 0.2Q156.75 0.2 156.14 0.2 155.53 0.2 154.92 0.2Z" opacity="1" transform="matrix(1,0,0,1,0,0)" fill="black" class="wordmark-text-0" id="SvgjsPath4932" stroke-width="5" stroke="black" stroke-linejoin="round"></path></svg></g></svg></g></svg></g></svg></g><g></g></svg></g></svg></g></svg></g></mask><g mask="url(#a478b1b5-c2d6-49f6-82c3-dd2fdcc11a71)"><g><path d="M206.446 247.192v0c-21.359 0-40.105-4.844-56.237-14.532-16.087-9.688-28.591-23.747-37.514-42.178-8.922-18.43-13.383-40.736-13.383-66.916v0c0-26.181 4.461-48.486 13.383-66.916 8.922-18.43 21.427-32.489 37.514-42.178 16.132-9.643 34.878-14.465 56.237-14.464v0c8.021 0 15.929 0.811 23.724 2.433 7.796 1.667 15.253 4.168 22.373 7.503 7.075 3.38 13.541 7.57 19.399 12.572 5.813 5.002 10.77 10.86 14.871 17.574 4.056 6.714 6.962 14.307 8.719 22.778v0l-23.116 8.382h-2.637c-1.983-8.877-5.881-16.785-11.693-23.725-5.858-6.939-13.045-12.369-21.562-16.29-8.517-3.875-17.844-5.813-27.983-5.813v0c-11.536 0-22.013 2.028-31.43 6.084-9.418 4.056-17.461 10.184-24.131 18.385-6.714 8.201-11.896 18.43-15.546 30.687-3.65 12.257-5.475 26.586-5.475 42.988v0c0 21.81 3.199 39.992 9.598 54.547 6.399 14.6 15.343 25.55 26.834 32.85 11.491 7.3 24.874 10.95 40.15 10.95v0c10.139 0 19.534-2.005 28.186-6.016 8.607-4.01 15.884-9.485 21.832-16.425 5.948-6.939 9.914-14.803 11.896-23.589v0h2.636l23.117 8.449c-1.757 8.336-4.709 15.884-8.855 22.643-4.101 6.759-9.102 12.662-15.005 17.709-5.903 5.002-12.392 9.17-19.467 12.505-7.12 3.38-14.622 5.881-22.508 7.502-7.931 1.667-15.907 2.501-23.927 2.501z" fill="#89939e" fill-rule="nonzero" stroke="none" stroke-width="1" stroke-linecap="butt" stroke-linejoin="miter" stroke-miterlimit="10" stroke-dasharray="" stroke-dashoffset="0" font-family="none" font-weight="none" font-size="none" text-anchor="none" style="mix-blend-mode: normal" data-fill-palette-color="tertiary"></path></g></g><g transform="matrix(1,0,0,1,0,69.6945587831027)"><svg viewBox="0 0 395.52 107.81088243379456" height="107.81088243379456" width="395.52"><g><svg viewBox="0 0 395.52 107.81088243379456" height="107.81088243379456" width="395.52"><g><svg viewBox="0 0 395.52 107.81088243379456" height="107.81088243379456" width="395.52"><g><svg viewBox="0 0 395.52 107.81088243379456" height="107.81088243379456" width="395.52"><g id="textblocktransform"><svg viewBox="0 0 395.52 107.81088243379456" height="107.81088243379456" width="395.52" id="textblock"><g><svg viewBox="0 0 395.52 107.81088243379456" height="107.81088243379456" width="395.52"><g transform="matrix(1,0,0,1,0,0)"><svg width="395.52" viewBox="-0.1200000000000001 -41.09 160.85 44.580000000000005" height="107.81088243379456" data-palette-color="#89939e"><path d="M14.89 0.49L14.89 0.49Q11.23 0.49 8.53-1.2 5.83-2.88 4.36-5.97 2.88-9.06 2.88-13.26L2.88-13.26Q2.88-17.48 4.36-20.56 5.83-23.63 8.53-25.32 11.23-27 14.89-27L14.89-27Q17.8-27 19.7-26.16 21.61-25.32 22.73-24.02 23.85-22.73 24.41-21.39L24.41-21.39 21.66-19.8 21.34-19.8Q20.43-21.46 19.01-22.56 17.58-23.66 15.09-23.66L15.09-23.66Q12.57-23.66 10.86-22.42 9.16-21.19 8.3-18.86 7.45-16.53 7.45-13.26L7.45-13.26Q7.45-10.01 8.3-7.68 9.16-5.35 10.85-4.1 12.55-2.86 15.09-2.86L15.09-2.86Q17.58-2.86 18.99-3.92 20.41-4.98 21.31-6.64L21.31-6.64 21.63-6.64 24.41-5.13Q23.85-3.78 22.73-2.49 21.61-1.2 19.7-0.35 17.8 0.49 14.89 0.49ZM35.1 0L30.69 0 30.69-37.6 35.13-38.09 35.13-28 34.98-21.48Q36.35-24.58 38.64-25.79 40.94-27 43.7-27L43.7-27Q47.97-27 50.24-24.22 52.51-21.44 52.51-16.36L52.51-16.36 52.51 0 48.02 0 48.02-16.14Q48.02-19.92 46.82-21.8 45.63-23.68 42.8-23.68L42.8-23.68Q40.6-23.68 39.12-22.91 37.64-22.14 36.75-20.84 35.86-19.53 35.48-17.91 35.1-16.28 35.1-14.55L35.1-14.55 35.1 0ZM67.55 0.49L67.55 0.49Q63.76 0.49 61.4-1.42 59.03-3.32 59.03-7.18L59.03-7.18Q59.03-8.94 59.65-10.3 60.27-11.67 61.54-12.61 62.81-13.55 64.81-14.04 66.82-14.53 69.55-14.53L69.55-14.53 75.51-14.53 75.51-17.58Q75.51-20.78 74.07-22.2 72.63-23.63 69.72-23.63L69.72-23.63Q67.84-23.63 65.49-23.03 63.13-22.44 61.25-21.14L61.25-21.14 59.96-24.51Q61.3-25.37 62.92-25.92 64.55-26.46 66.32-26.73 68.09-27 69.84-27L69.84-27Q72.82-27 75.09-26.05 77.36-25.1 78.64-22.95 79.93-20.8 79.93-17.21L79.93-17.21 79.93 0 76.22 0 75.9-3.25Q74.85-2 73.6-1.17 72.36-0.34 70.86 0.07 69.36 0.49 67.55 0.49ZM68.23-2.66L68.23-2.66Q70.58-2.66 72.43-3.64 74.29-4.61 75.51-6.18L75.51-6.18 75.51-11.72 70.36-11.72Q67.67-11.72 66.11-11.21 64.55-10.69 63.9-9.68 63.25-8.67 63.25-7.13L63.25-7.13Q63.25-4.64 64.7-3.65 66.16-2.66 68.23-2.66ZM92.11 0L87.69 0 87.69-37.6 92.13-38.09 92.13-28 91.98-21.48Q93.35-24.58 95.65-25.79 97.94-27 100.7-27L100.7-27Q104.97-27 107.24-24.22 109.51-21.44 109.51-16.36L109.51-16.36 109.51 0 105.02 0 105.02-16.14Q105.02-19.92 103.83-21.8 102.63-23.68 99.8-23.68L99.8-23.68Q97.6-23.68 96.12-22.91 94.65-22.14 93.75-20.84 92.86-19.53 92.49-17.91 92.11-16.28 92.11-14.55L92.11-14.55 92.11 0ZM124.55 0.49L124.55 0.49Q120.77 0.49 118.4-1.42 116.03-3.32 116.03-7.18L116.03-7.18Q116.03-8.94 116.65-10.3 117.28-11.67 118.54-12.61 119.81-13.55 121.82-14.04 123.82-14.53 126.55-14.53L126.55-14.53 132.51-14.53 132.51-17.58Q132.51-20.78 131.07-22.2 129.63-23.63 126.72-23.63L126.72-23.63Q124.84-23.63 122.49-23.03 120.13-22.44 118.25-21.14L118.25-21.14 116.96-24.51Q118.3-25.37 119.92-25.92 121.55-26.46 123.32-26.73 125.09-27 126.85-27L126.85-27Q129.82-27 132.09-26.05 134.37-25.1 135.65-22.95 136.93-20.8 136.93-17.21L136.93-17.21 136.93 0 133.22 0 132.9-3.25Q131.85-2 130.61-1.17 129.36-0.34 127.86 0.07 126.36 0.49 124.55 0.49ZM125.23-2.66L125.23-2.66Q127.58-2.66 129.43-3.64 131.29-4.61 132.51-6.18L132.51-6.18 132.51-11.72 127.36-11.72Q124.67-11.72 123.11-11.21 121.55-10.69 120.9-9.68 120.25-8.67 120.25-7.13L120.25-7.13Q120.25-4.64 121.71-3.65 123.16-2.66 125.23-2.66ZM154.92 0.2L154.92 0.2Q152.11 0.2 150.39-0.23 148.67-0.66 147.78-1.61 146.89-2.56 146.57-4.17 146.25-5.79 146.25-8.15L146.25-8.15 146.25-23.71 142.08-23.71 142.2-26.17 146.37-26.39 147.01-33.54 150.7-33.81 150.7-26.42 157.73-26.42 157.73-23.71 150.7-23.71 150.7-8.13Q150.7-6.05 150.93-4.98 151.16-3.91 152.06-3.5 152.97-3.1 154.92-3.03L154.92-3.03Q155.58-3 156.24-2.98 156.9-2.95 157.56-2.93L157.56-2.93 157.36 0.2Q156.75 0.2 156.14 0.2 155.53 0.2 154.92 0.2Z" opacity="1" transform="matrix(1,0,0,1,0,0)" fill="#89939e" class="wordmark-text-0" data-fill-palette-color="primary" id="text-0"></path></svg></g></svg></g></svg></g></svg></g><g></g></svg></g></svg></g></svg></g></svg></g><defs></defs></svg><rect width="395.52" height="247.2" fill="none" stroke="none" visibility="hidden"></rect></g></svg></g></svg>